<svg width="32" height="32" viewBox="0 0 32 32" xmlns="http://www.w3.org/2000/svg">
  <!-- Pixelated star animation -->
  <g>
    <rect x="14" y="0" width="4" height="4" fill="#a855f7"/>
    <rect x="10" y="4" width="4" height="4" fill="#a855f7"/>
    <rect x="14" y="4" width="4" height="4" fill="#c084fc"/>
    <rect x="18" y="4" width="4" height="4" fill="#a855f7"/>
    <rect x="6" y="8" width="4" height="4" fill="#a855f7"/>
    <rect x="10" y="8" width="4" height="4" fill="#c084fc"/>
    <rect x="14" y="8" width="4" height="4" fill="#e9d5ff"/>
    <rect x="18" y="8" width="4" height="4" fill="#c084fc"/>
    <rect x="22" y="8" width="4" height="4" fill="#a855f7"/>
    <rect x="2" y="12" width="4" height="4" fill="#a855f7"/>
    <rect x="6" y="12" width="4" height="4" fill="#c084fc"/>
    <rect x="10" y="12" width="4" height="4" fill="#e9d5ff"/>
    <rect x="14" y="12" width="4" height="4" fill="#ffffff"/>
    <rect x="18" y="12" width="4" height="4" fill="#e9d5ff"/>
    <rect x="22" y="12" width="4" height="4" fill="#c084fc"/>
    <rect x="26" y="12" width="4" height="4" fill="#a855f7"/>
    <rect x="6" y="16" width="4" height="4" fill="#a855f7"/>
    <rect x="10" y="16" width="4" height="4" fill="#c084fc"/>
    <rect x="14" y="16" width="4" height="4" fill="#e9d5ff"/>
    <rect x="18" y="16" width="4" height="4" fill="#c084fc"/>
    <rect x="22" y="16" width="4" height="4" fill="#a855f7"/>
    <rect x="10" y="20" width="4" height="4" fill="#a855f7"/>
    <rect x="14" y="20" width="4" height="4" fill="#c084fc"/>
    <rect x="18" y="20" width="4" height="4" fill="#a855f7"/>
    <rect x="14" y="24" width="4" height="4" fill="#a855f7"/>
  </g>
  <animateTransform
    attributeName="transform"
    type="scale"
    values="1;1.1;1"
    dur="2s"
    repeatCount="indefinite"/>
</svg>
